<?xml version="1.0" encoding="UTF-8" standalone="no"?>
<!-- Created with Inkscape (http://www.inkscape.org/) -->

<svg
   version="1.1"
   id="svg2"
   xml:space="preserve"
   width="75.529701"
   height="66.781525"
   viewBox="0 0 75.529701 66.781525"
   sodipodi:docname="energystar.svg"
   inkscape:version="1.1.2 (0a00cf5339, 2022-02-04)"
   xmlns:inkscape="http://www.inkscape.org/namespaces/inkscape"
   xmlns:sodipodi="http://sodipodi.sourceforge.net/DTD/sodipodi-0.dtd"
   xmlns="http://www.w3.org/2000/svg"
   xmlns:svg="http://www.w3.org/2000/svg"><defs
     id="defs6" /><sodipodi:namedview
     id="namedview4"
     pagecolor="#ffffff"
     bordercolor="#666666"
     borderopacity="1.0"
     inkscape:pageshadow="2"
     inkscape:pageopacity="0.0"
     inkscape:pagecheckerboard="0"
     showgrid="false"
     inkscape:zoom="10.865987"
     inkscape:cx="36.121893"
     inkscape:cy="30.001878"
     inkscape:window-width="1920"
     inkscape:window-height="1080"
     inkscape:window-x="0"
     inkscape:window-y="0"
     inkscape:window-maximized="1"
     inkscape:current-layer="g8"
     fit-margin-top="0"
     fit-margin-left="0"
     fit-margin-right="0"
     fit-margin-bottom="0" /><g
     id="g8"
     inkscape:groupmode="layer"
     inkscape:label="ink_ext_XXXXXX"
     transform="matrix(1.3333333,0,0,-1.3333333,-1.8598933,72.152665)"><path
       d="m 29.7148,52.7199 c 11.7981,0 22.2129,-6.0226 28.3274,-15.1496 v 2.0313 C 51.6934,48.3859 41.3633,54.1145 29.7148,54.1145 18.0699,54.1145 7.73867,48.3867 1.39492,39.6094 V 37.5781 C 7.50977,46.7012 17.9219,52.7199 29.7148,52.7199"
       style="fill:#000000;fill-opacity:1;fill-rule:nonzero;stroke:none;stroke-width:0.1"
       id="path20" /><path
       d="M 6.97461,29.4816 C 6.85508,29.2492 6.7668,29.0324 6.6957,28.8223 4.41914,28.1418 2.90195,28.7461 2.80078,28.7902 2.57461,28.884 2.31211,28.7793 2.21797,28.5527 2.11875,28.3262 2.22266,28.0676 2.45078,27.9699 2.55859,27.9219 4.13594,27.2785 6.4918,27.8449 6.49063,27.8145 6.48594,27.7824 6.48594,27.7531 c 0,-0.6621 0.2789,-1.1133 0.64414,-1.3488 1.02265,-0.6668 3.27462,-0.0984 6.54182,3.2324 -0.2098,-0.6015 -0.4,-1.2605 -0.5219,-1.9422 -0.0039,-0.0293 -0.0059,-0.0605 -0.0059,-0.0879 0,-0.1867 0.1098,-0.3566 0.2848,-0.4269 0.3527,-0.1426 0.5559,0.1504 0.7348,0.4062 l 0.4531,0.6739 c 0.393,0.5898 1.2738,1.916 1.873,2.6093 -0.0726,-0.3796 -0.146,-0.8113 -0.146,-1.2175 0,-0.552 0.1328,-1.0559 0.5792,-1.3164 0.3739,-0.2168 0.9731,-0.2942 2.2719,0.4793 0.109,-0.3008 0.3289,-0.4422 0.4551,-0.502 0.8301,-0.3836 2.393,0.4465 4.0238,2.0059 -0.2203,-0.493 -0.3883,-0.9043 -0.432,-1.0762 -0.0098,-0.0469 -0.0152,-0.0938 -0.0152,-0.1336 0,-0.207 0.1265,-0.3566 0.2699,-0.4231 0.3594,-0.157 0.5875,0.1563 0.7672,0.4122 l 0.4922,0.7101 c 0.4082,0.6016 1.3671,2.0106 1.9277,2.5957 0.166,-0.4055 0.4613,-0.916 0.9934,-1.2148 -0.154,-0.3496 -0.2321,-0.6516 -0.2321,-0.9035 0,-0.3125 0.1172,-0.5469 0.3512,-0.7051 0.4187,-0.2852 1.0555,-0.1289 1.7195,0.2316 -2.1187,-2.0996 -3.0937,-4.1914 -3.1242,-5.1203 -8e-4,-0.0176 -8e-4,-0.0359 -8e-4,-0.0535 0,-0.5176 0.2543,-0.7246 0.4114,-0.8027 0.3222,-0.1614 0.7136,-0.0618 1.1699,0.2988 1.5961,1.2664 2.7586,4.2703 3.3523,6.1094 0.7949,0.6472 1.7285,1.2781 2.7988,1.8543 -0.3476,-0.6082 -0.5449,-1.1836 -0.5449,-1.6493 0,-0.1679 0.0254,-0.3234 0.0742,-0.4589 0.1231,-0.3262 0.3868,-0.5352 0.7227,-0.5696 0.7363,-0.0801 1.7551,0.6906 2.9563,2.1699 -0.1028,-0.2937 -0.2043,-0.58 -0.3059,-0.8601 -3.334,-2.6242 -4.834,-5.4297 -5.0262,-6.9512 -0.0168,-0.125 -0.0265,-0.2394 -0.0265,-0.3449 0,-0.6063 0.2453,-0.8875 0.4707,-1.0156 0.2539,-0.1446 0.6847,-0.2129 1.3183,0.2707 0.7063,0.5379 2.3887,3.1726 4.0176,7.5105 2.1641,1.6582 5.1289,3.2473 9.0723,4.336 0.1984,0.0558 0.33,0.2336 0.33,0.4316 0,0.0383 -0.0066,0.0793 -0.0164,0.1172 -0.0675,0.2394 -0.3136,0.3769 -0.5539,0.3117 -3.4433,-0.9531 -6.1718,-2.2852 -8.3047,-3.7297 0.2539,0.7531 0.5079,1.5488 0.752,2.3867 0.0117,0.0422 0.0176,0.0832 0.0176,0.1262 0,0.1699 -0.0996,0.3328 -0.2617,0.4063 -0.2032,0.0906 -0.4434,0.0175 -0.5606,-0.168 -2.2226,-3.4856 -3.4824,-4.1184 -3.7598,-4.1133 -0.0156,0.0313 -0.0261,0.0742 -0.0261,0.1356 0,0.3984 0.3406,1.3918 1.4402,2.5546 0.0781,0.0852 0.1231,0.1946 0.1231,0.3067 0,0.0879 -0.0293,0.1769 -0.0821,0.2539 -0.123,0.1719 -0.3476,0.2383 -0.541,0.1574 -1.4031,-0.593 -2.6121,-1.2949 -3.6641,-2.0391 0.011,0.0418 0.0196,0.075 0.0223,0.0887 0.009,0.0371 0.0168,0.0723 0.0168,0.1094 0,0.1621 -0.0937,0.3164 -0.2422,0.3937 -0.0097,0.0028 -0.0156,0.0028 -0.0246,0.0067 0.3078,0.2414 0.6234,0.507 0.9563,0.8137 0.3515,0.3261 0.4414,0.6218 0.4414,0.8406 0,0.0957 -0.0176,0.1758 -0.0379,0.2394 -0.1028,0.3145 -0.3957,0.5223 -0.7961,0.5711 -0.9871,0.1145 -2.5504,-0.7207 -3.9512,-2.7793 -0.4769,0.2551 -0.6648,0.8782 -0.7508,1.1633 l -0.0351,0.1141 c -0.0582,0.1867 -0.2282,0.3039 -0.4258,0.3027 -0.3024,-0.0039 -0.627,-0.2117 -1.1363,-0.8094 0.0066,0.0145 0.014,0.0293 0.023,0.0411 0.0281,0.0625 0.041,0.1277 0.041,0.1933 0,0.1531 -0.0781,0.2988 -0.2148,0.3817 -0.1985,0.1191 -0.4524,0.0695 -0.5891,-0.1153 -2.489,-3.3476 -4.6695,-4.2773 -5.0101,-4.1074 -0.002,0.0098 -0.0098,0.0344 -0.0098,0.091 0,0.0379 0.0066,0.0926 0.0176,0.1582 0.557,0.3965 1.2133,0.9168 1.991,1.5918 0.7215,0.6258 0.8875,1.1309 0.8875,1.4649 0,0.1531 -0.0352,0.2683 -0.0664,0.3425 -0.1481,0.3457 -0.5031,0.5364 -0.9328,0.4981 -0.9242,-0.0801 -2.0789,-1.1602 -2.6602,-3.3563 -1.443,-0.9843 -1.8328,-0.8351 -1.8848,-0.8047 -0.1972,0.1133 -0.1812,0.7305 0.043,1.8329 0.0977,0.4902 0.1426,0.714 0.0328,0.9179 -0.107,0.1992 -0.2949,0.3184 -0.5129,0.3281 -0.4691,0.0227 -1.0011,-0.4675 -2.1046,-2.0261 0.4378,1.039 0.8644,1.7519 0.8722,1.7625 0.0445,0.0734 0.0656,0.1523 0.0656,0.2316 0,0.1395 -0.0664,0.2774 -0.1894,0.3641 -0.1899,0.1367 -0.4527,0.1008 -0.6039,-0.0828 -3.9258,-4.7864 -6.59572,-5.7805 -7.35822,-5.2864 -0.16289,0.1075 -0.24141,0.3145 -0.24141,0.593 0,0.1141 0.01875,0.2441 0.04571,0.3816 1.46992,0.5215 3.16992,1.5254 4.96992,3.3684 1.0617,1.084 1.632,2.1016 1.632,2.8738 0,0.1739 -0.0281,0.3352 -0.0867,0.4805 -0.1574,0.4016 -0.5199,0.6465 -0.9933,0.6699 -1.4102,0.0657 -3.802,-1.7722 -5.96919,-6.034 z m 5.92739,5.1426 c 0.166,-0.009 0.1918,-0.0734 0.2058,-0.1047 0.0129,-0.0398 0.0231,-0.0925 0.0231,-0.1543 0,-0.3886 -0.3399,-1.1902 -1.3789,-2.2519 -1.3922,-1.4238 -2.70786,-2.3086 -3.88247,-2.8445 2.06406,3.9687 4.17457,5.3953 5.03247,5.3554 z m 8.805,-2.3398 c 0.1461,0.0781 0.25,0.0945 0.3098,0.0945 -0.023,-0.1062 -0.1359,-0.3641 -0.573,-0.7449 -0.325,-0.2805 -0.625,-0.5332 -0.8997,-0.7559 0.4551,0.9532 0.9715,1.3067 1.1629,1.4063 z m 9.9082,1.534 c 0.1641,0.0371 0.2754,0.039 0.3469,0.0293 -0.0246,-0.0301 -0.05,-0.0645 -0.0988,-0.1075 -1.0254,-0.95 -1.9285,-1.5554 -2.6434,-1.7898 1.1199,1.4512 2.0887,1.7949 2.3953,1.868 z m -1.3476,-2.3848 c -0.8649,-0.7625 -1.6508,-1.1141 -1.9297,-1.1152 0.0031,0.0839 0.041,0.2773 0.2141,0.6379 0.5101,-0.0196 1.0808,0.1375 1.7156,0.4773 z M 29.9219,28.966 c -0.6078,-1.5605 -1.4692,-3.3105 -2.5059,-4.132 -0.0512,-0.041 -0.0941,-0.0723 -0.1312,-0.0977 0.0472,0.6446 0.8359,2.377 2.6371,4.2297 z m 2.9453,-5.5305 c 0,0.2051 0.0469,0.5333 0.2141,1.004 0.4089,1.1699 1.4363,2.832 3.2546,4.5351 -1.3679,-3.2781 -2.6484,-5.2176 -3.1179,-5.5808 -0.1535,-0.1145 -0.261,-0.1672 -0.3176,-0.1836 -0.0176,0.041 -0.0332,0.1082 -0.0332,0.2253"
       style="fill:#000000;fill-opacity:1;fill-rule:nonzero;stroke:none;stroke-width:0.1"
       id="path22" /><path
       d="m 45.6563,44.5734 c -0.2774,0 -0.5235,-0.1671 -0.625,-0.4257 0,0 -2.4532,-6.2805 -2.7344,-6.9973 -0.7696,-0.043 -7.4766,-0.3965 -7.4766,-0.3965 -0.3543,-0.0176 -0.6328,-0.3144 -0.6328,-0.666 0,-0.0106 0.002,-0.0234 0.002,-0.0359 0.0187,-0.3672 0.332,-0.6497 0.7031,-0.6321 L 42.8,35.8391 c 0.2605,0.0117 0.4922,0.1797 0.5879,0.4226 0,0 1.4969,3.8418 2.2664,5.8067 0.7637,-1.961 2.2539,-5.7821 2.2539,-5.7821 0.0957,-0.2441 0.3242,-0.4082 0.584,-0.4238 0,0 4.082,-0.2344 6.168,-0.3555 -1.6082,-1.334 -4.7637,-3.9543 -4.7637,-3.9543 -0.1582,-0.1289 -0.2442,-0.3152 -0.2442,-0.5125 0,-0.0558 0.0059,-0.1113 0.0207,-0.1652 0,0 1.0125,-3.9559 1.5352,-5.9832 -1.757,1.1309 -5.1809,3.3379 -5.1809,3.3379 -0.2187,0.1426 -0.5039,0.1426 -0.7226,0.0047 0,0 -3.4617,-2.202 -5.2547,-3.3406 0.5477,1.9695 1.5301,5.5144 1.5301,5.5144 0.0129,0.0578 0.0215,0.1203 0.0215,0.1777 0,0.293 -0.1934,0.5598 -0.4903,0.6426 -0.3562,0.0988 -0.7265,-0.1101 -0.8242,-0.4668 l -1.9883,-7.1863 c -0.0742,-0.2649 0.0235,-0.55 0.2461,-0.7141 0.2227,-0.164 0.5254,-0.1726 0.759,-0.0254 0,0 5.7078,3.6282 6.3563,4.0411 0.6437,-0.4161 6.2578,-4.0313 6.2578,-4.0313 0.2324,-0.1484 0.5273,-0.1414 0.7539,0.0188 0.175,0.1289 0.2793,0.33 0.2793,0.5418 0,0.0546 -0.0098,0.1125 -0.0242,0.1652 7e-4,0 -1.6661,6.491 -1.8528,7.2246 0.5801,0.4844 5.7461,4.7676 5.7461,4.7676 0.1535,0.1308 0.2422,0.3183 0.2422,0.5136 0,0.0704 -0.0117,0.1395 -0.0352,0.209 -0.0839,0.2598 -0.3203,0.4403 -0.5957,0.4571 0,0 -6.6648,0.3816 -7.4324,0.4265 -0.2824,0.7149 -2.7219,6.9778 -2.7219,6.9778 -0.0996,0.2578 -0.3476,0.4257 -0.621,0.4257"
       style="fill:#000000;fill-opacity:1;fill-rule:nonzero;stroke:none;stroke-width:0.1"
       id="path24" /><path
       d="M 3.83711,4.17578 V 11.2512 H 7.48672 V 10.4668 H 4.73867 V 8.19336 H 7.29102 V 7.40938 H 4.73867 V 4.96016 H 7.54609 V 4.17578 H 3.83711"
       style="fill:#000000;fill-opacity:1;fill-rule:nonzero;stroke:none;stroke-width:0.1"
       id="path28" /><path
       d="M 13.5336,11.2512 V 4.17578 H 12.2969 L 9.50117,10.3098 H 9.48086 V 4.17578 H 8.67695 V 11.2512 H 9.95156 L 12.7102,5.19531 h 0.0187 v 6.05589 h 0.8047"
       style="fill:#000000;fill-opacity:1;fill-rule:nonzero;stroke:none;stroke-width:0.1"
       id="path30" /><path
       d="m 14.7855,4.17578 v 7.07542 h 3.6516 v -0.7844 h -2.748 V 8.19336 h 2.5515 V 7.40938 H 15.6891 V 4.96016 h 2.8066 V 4.17578 h -3.7102"
       style="fill:#000000;fill-opacity:1;fill-rule:nonzero;stroke:none;stroke-width:0.1"
       id="path32" /><path
       d="m 20.4848,10.4668 h 1.3648 c 0.6953,0 0.9512,-0.56836 0.9512,-1.07813 0,-0.61797 -0.3141,-1.17578 -0.9617,-1.17578 h -1.3543 z m 1.0593,-3.03789 c 0.3055,0 1.0008,-0.03907 1.0696,-0.90157 0.0793,-0.94023 0.0203,-1.86211 0.275,-2.35156 h 0.9433 c -0.139,0.43945 -0.2363,1.54883 -0.2461,1.85274 -0.0492,1.42187 -0.3421,1.69336 -1.1582,1.82109 v 0.0207 c 0.834,0.14649 1.295,0.78321 1.295,1.61719 0,0.8809 -0.4411,1.7637 -1.6977,1.7637 H 19.582 V 4.17578 h 0.9028 v 3.25313 h 1.0593"
       style="fill:#000000;fill-opacity:1;fill-rule:nonzero;stroke:none;stroke-width:0.1"
       id="path34" /><path
       d="m 28.0949,9.35938 c 0,0.83512 -0.3429,1.28442 -1.257,1.28442 -0.2852,0 -1.3051,-0.0489 -1.3051,-1.52935 V 6.72266 c 0,-1.54883 0.452,-1.93946 1.3051,-1.93946 0.648,0 1.0793,0.17696 1.2672,0.3125 V 7.21289 H 26.7988 V 7.99727 H 29.007 V 4.55664 C 28.4277,4.24336 27.752,4.02852 26.8379,4.02852 c -1.5008,0 -2.227,0.77539 -2.227,2.73437 v 2.32227 c 0,1.41094 0.7262,2.31254 2.227,2.31254 1.5316,0 2.2578,-0.5579 2.1976,-2.03832 h -0.9406"
       style="fill:#000000;fill-opacity:1;fill-rule:nonzero;stroke:none;stroke-width:0.1"
       id="path36" /><path
       d="m 33.332,11.2512 h 0.9121 L 32.3125,6.87227 V 4.17578 h -0.9023 v 2.69649 l -1.9051,4.37893 h 1.0113 l 1.384,-3.41995 1.4316,3.41995"
       style="fill:#000000;fill-opacity:1;fill-rule:nonzero;stroke:none;stroke-width:0.1"
       id="path38" /><path
       d="M 37.2941,6.2832 V 6.07734 c 0,-0.96093 0.6102,-1.26562 1.1883,-1.26562 0.7168,0 1.2656,0.30469 1.2656,1.14726 0,1.56836 -3.1796,1.39063 -3.1796,3.51875 0,1.25277 0.8925,1.91997 2.082,1.91997 1.2949,0 2.0207,-0.627 1.9609,-2.06762 h -0.9422 c 0.0098,0.77462 -0.2355,1.28442 -1.0878,1.28442 -0.5411,0 -1.0891,-0.2747 -1.0891,-1.03911 0,-1.55859 3.1789,-1.3332 3.1789,-3.57617 0,-1.49024 -1.0313,-1.9707 -2.1992,-1.9707 C 36.382,4.00977 36.382,5.60547 36.4023,6.2832 h 0.8918"
       style="fill:#000000;fill-opacity:1;fill-rule:nonzero;stroke:none;stroke-width:0.1"
       id="path40" /><path
       d="M 45.7102,11.2512 V 10.4668 H 43.8449 V 4.17578 h -0.9035 v 6.29102 h -1.8633 v 0.7844 h 4.6321"
       style="fill:#000000;fill-opacity:1;fill-rule:nonzero;stroke:none;stroke-width:0.1"
       id="path42" /><path
       d="m 48.8945,6.64453 h -2.2664 l 1.1082,3.77347 h 0.0196 z M 44.9609,4.17578 h 0.9102 l 0.5312,1.68672 h 2.7383 l 0.5098,-1.68672 h 1.0098 L 48.3555,11.2512 H 47.207 L 44.9609,4.17578"
       style="fill:#000000;fill-opacity:1;fill-rule:nonzero;stroke:none;stroke-width:0.1"
       id="path44" /><path
       d="m 52.2598,10.4668 h 1.3644 c 0.6961,0 0.952,-0.56836 0.952,-1.07813 0,-0.61797 -0.3164,-1.17578 -0.9629,-1.17578 h -1.3535 z m 1.0586,-3.03789 c 0.3058,0 1.0019,-0.03907 1.0703,-0.90157 0.0781,-0.94023 0.0195,-1.86211 0.2765,-2.35156 h 0.9403 C 55.468,4.61523 55.3711,5.72461 55.3613,6.02852 55.3125,7.45039 55.0168,7.72188 54.2031,7.84961 v 0.0207 c 0.8321,0.14649 1.293,0.78321 1.293,1.61719 0,0.8809 -0.4402,1.7637 -1.6961,1.7637 H 51.3555 V 4.17578 h 0.9043 v 3.25313 h 1.0586"
       style="fill:#000000;fill-opacity:1;fill-rule:nonzero;stroke:none;stroke-width:0.1"
       id="path46" /></g></svg>
