<svg
         version="1.1"
         id="svg1791"
         width="200"
         height="141"
         viewBox="0 0 1799.8786 1270.0428"
         xmlns="http://www.w3.org/2000/svg"
         xmlns:svg="http://www.w3.org/2000/svg">
        <defs
           id="defs1795" />
        <g
           id="layer1"
           transform="rotate(-10,-882.41399,3171.0868)">
          <g
             aria-label="KC"
             id="text3157"
             style="font-size:1240px;font-family:GROBOLDpro;-inkscape-font-specification:GROBOLDpro;display:inline;fill:#000000;fill-opacity:1;stroke-width:0">
            <path
               d="m 1288.8789,679.60844 -345.95999,321.15996 305.03999,256.68 -173.6,260.4 -240.55999,-226.92 -2.48,157.48 -324.88,37.2 -19.84,-996.95996 363.32,-43.4 -3.72,224.44 199.63999,-276.52 z"
               id="path705"
               style="fill-opacity:1" />
            <path
               d="m 1910.1185,895.36844 q -49.6,-53.32 -90.52,-76.88 -40.92,-23.56 -73.16,-26.04 -32.24,-2.48 -58.28,11.16 -24.8,13.64 -43.4,35.96 -43.4,53.32 -66.96,155 13.64,89.27996 55.8,130.19996 18.6,17.36 44.64,26.04 26.04,8.68 62,1.24 35.96,-8.68 83.08,-35.96 47.12,-28.52 107.88,-84.32 l 241.8,257.92 q -18.6,34.72 -64.48,73.16 -45.88,37.2 -109.12,68.2 -63.24,31 -138.88,52.08 -75.64,21.08 -155,23.56 -78.12,2.48 -155,-17.36 -75.64,-19.84 -140.12,-69.44 -93,-71.92 -137.64,-158.72 -44.64,-86.8 -53.32,-178.56 -8.68,-91.75996 14.88,-183.51996 22.32,-91.76 63.24,-172.36 42.16,-80.6 97.96,-145.08 57.04,-64.48 115.32,-102.92 93,-53.32 195.92,-59.52 43.4,-2.48 93,4.96 50.84,7.44 104.16,31 54.56,22.32 110.36,64.48 57.04,42.16 112.84,109.12 z"
               id="path707"
               style="display:inline;fill-opacity:1" />
          </g>
        </g>
      </svg>
